<svg xmlns="http://www.w3.org/2000/svg" xmlns:xlink="http://www.w3.org/1999/xlink" id="Layer_1" x="0" y="0" enable-background="new 0 0 31 19" version="1.1" viewBox="0 0 31 19" xml:space="preserve"><g><path fill="#FFF" d="M21.5,19h-12C4.253,19,0,14.747,0,9.5v0C0,4.253,4.253,0,9.5,0h12C26.747,0,31,4.253,31,9.5v0 C31,14.747,26.747,19,21.5,19z"/><path fill="#231F20" d="M21.5,1C26.187,1,30,4.813,30,9.5c0,4.687-3.813,8.5-8.5,8.5h-12C4.813,18,1,14.187,1,9.5 C1,4.813,4.813,1,9.5,1H21.5 M21.5,0h-12C4.253,0,0,4.253,0,9.5v0C0,14.747,4.253,19,9.5,19h12c5.247,0,9.5-4.253,9.5-9.5v0 C31,4.253,26.747,0,21.5,0L21.5,0z" class="data-fill"/></g><g><g><rect width="11" height="1" x="10" y="9" fill="#FFF" transform="matrix(0.7071 0.7071 -0.7071 0.7071 11.2574 -8.1777)"/><polygon fill="#231F20" points="11.964 5.257 11.257 5.964 19.036 13.743 19.743 13.036 11.964 5.257" class="data-fill"/></g><g><rect width="11" height="1" x="10" y="9" fill="#FFF" transform="matrix(-0.7071 0.7071 -0.7071 -0.7071 33.1777 5.2574)"/><polygon fill="#231F20" points="19.036 5.257 11.257 13.036 11.964 13.743 19.743 5.964 19.036 5.257" class="data-fill"/></g></g></svg>